<?xml version="1.0" encoding="UTF-8"?>
<svg version="1.1" xmlns="http://www.w3.org/2000/svg" width="795" height="234">
<path d="M0 0 C262.35 0 524.7 0 795 0 C795 77.22 795 154.44 795 234 C532.65 234 270.3 234 0 234 C0 156.78 0 79.56 0 0 Z " fill="#FEFEFE" transform="translate(0,0)"/>
<path d="M0 0 C3.1804595 1.88067326 6.33537136 3.80098247 9.48339844 5.73535156 C11.31075766 6.85392848 13.14611788 7.95803851 14.984375 9.05859375 C24.75614113 14.93233296 32.70700367 19.9729699 36.46875 31.21875 C37.95086438 37.58637985 37.7201637 44.12772899 37.7265625 50.62890625 C37.75105469 51.923125 37.77554688 53.21734375 37.80078125 54.55078125 C37.82896072 63.86879283 36.93543818 73.52653095 31.1640625 81.25390625 C24.09048435 87.85591253 15.17414694 92.48932917 6.9140625 97.44140625 C5.84607422 98.08787109 4.77808594 98.73433594 3.67773438 99.40039062 C-15.89024498 111.15074109 -15.89024498 111.15074109 -23.6484375 109.87890625 C-27.17557456 108.17447118 -29.84792559 106.37529485 -31.71961975 102.8765564 C-33.02212904 98.67286071 -32.95158926 94.71212822 -32.95483398 90.33447266 C-32.9631575 89.37938309 -32.97148102 88.42429352 -32.98005676 87.44026184 C-33.0041272 84.28695586 -33.01292496 81.13385682 -33.01953125 77.98046875 C-33.0284992 75.78477924 -33.03762108 73.58909036 -33.04689026 71.3934021 C-33.06337434 66.79187536 -33.07107944 62.19042134 -33.07397461 57.58886719 C-33.0793604 51.69853741 -33.11705174 45.80889275 -33.16271877 39.91875648 C-33.19248895 35.38393671 -33.19969815 30.84928201 -33.20070076 26.31437302 C-33.20490243 24.14307896 -33.2173345 21.97178439 -33.23821831 19.8005867 C-33.26513337 16.76059059 -33.26030655 13.72218411 -33.24780273 10.68212891 C-33.26263702 9.78942795 -33.27747131 8.89672699 -33.29275513 7.97697449 C-33.21942741 1.70289746 -31.76219276 -1.36640183 -27.6484375 -6.12109375 C-18.95722974 -13.0141206 -7.67743867 -4.48626292 0 0 Z " fill="#FA776C" transform="translate(64.6484375,69.12109375)"/>
<path d="M0 0 C2.82923734 0.53726931 5.52001638 0.71359551 8.39697266 0.82128906 C9.46367188 0.86318359 10.53037109 0.90507813 11.62939453 0.94824219 C12.7321875 0.98755859 13.83498047 1.026875 14.97119141 1.06738281 C16.65438477 1.1321582 16.65438477 1.1321582 18.37158203 1.19824219 C21.1338371 1.30403068 23.89617771 1.40611953 26.65869141 1.50488281 C26.65869141 4.14488281 26.65869141 6.78488281 26.65869141 9.50488281 C23.02869141 9.83488281 19.39869141 10.16488281 15.65869141 10.50488281 C16.48369141 11.61863281 17.30869141 12.73238281 18.15869141 13.87988281 C21.18992417 18.76785359 21.60128239 22.87626811 20.65869141 28.50488281 C18.72534216 35.16953394 14.3424098 39.70931494 8.65869141 43.50488281 C1.50618015 47.39981468 -5.69334964 48.00855318 -13.67895508 48.17822266 C-17.97132074 48.11451396 -17.97132074 48.11451396 -21.34130859 50.50488281 C-21.50808142 54.08832257 -21.50808142 54.08832257 -21.34130859 57.50488281 C-18.73519496 58.80793963 -16.72615707 58.68223996 -13.81005859 58.75097656 C-12.68857422 58.78384766 -11.56708984 58.81671875 -10.41162109 58.85058594 C-8.06274044 58.91097838 -5.71377994 58.96835398 -3.36474609 59.02246094 C7.90705745 59.36266913 16.21707923 60.0803673 25.03369141 67.50488281 C27.68255004 72.39508337 27.5528183 77.08509827 26.65869141 82.50488281 C24.64359911 87.4764244 21.75336554 91.25345328 17.03369141 93.87988281 C15.5937939 94.468809 14.13277135 95.00766334 12.65869141 95.50488281 C11.82982422 95.80136719 11.00095703 96.09785156 10.14697266 96.40332031 C-2.02182379 100.10317753 -18.53034411 100.67331719 -30.34130859 95.50488281 C-34.70431906 92.80948165 -37.80818943 90.40887984 -39.21630859 85.37988281 C-38.02333424 81.46010995 -35.71068047 79.59594499 -32.34130859 77.50488281 C-29.46630859 76.19238281 -29.46630859 76.19238281 -27.34130859 75.50488281 C-27.91880859 75.1271875 -28.49630859 74.74949219 -29.09130859 74.36035156 C-32.43378392 71.88250961 -34.91349454 69.95386108 -36.11865234 65.87207031 C-36.42375837 60.52899407 -35.60887534 57.1372644 -32.15380859 53.00488281 C-25.57389056 46.50488281 -25.57389056 46.50488281 -21.34130859 46.50488281 C-21.34130859 45.84488281 -21.34130859 45.18488281 -21.34130859 44.50488281 C-22.20755859 44.27800781 -23.07380859 44.05113281 -23.96630859 43.81738281 C-30.23193032 41.38075214 -34.0324565 37.26473646 -37.34130859 31.50488281 C-38.95023619 26.28936583 -39.49119315 20.43373674 -37.47021484 15.28613281 C-33.188448 7.9860713 -27.14502424 3.11340731 -19.23193359 0.18847656 C-13.0730328 -1.26802025 -6.20121213 -1.31137207 0 0 Z " fill="#050505" transform="translate(664.34130859375,98.4951171875)"/>
<path d="M0 0 C0.92849258 -0.01606293 1.85698517 -0.03212585 2.81361389 -0.04867554 C7.074627 -0.09338038 11.33548631 -0.13422501 15.59667969 -0.15722656 C17.83604358 -0.17373651 20.07535587 -0.20096026 22.31445312 -0.23925781 C25.55683512 -0.29438813 28.7979821 -0.31596016 32.04077148 -0.33056641 C33.02968887 -0.35323578 34.01860626 -0.37590515 35.03749084 -0.39926147 C43.25059347 -0.37463631 49.74828945 1.97319483 55.95874023 7.43115234 C56.76827148 8.34251953 57.57780273 9.25388672 58.41186523 10.19287109 C59.86834159 11.65178186 61.33276169 13.10278044 62.80249023 14.54833984 C64.42234128 16.15895721 66.04213144 17.76963582 67.66186523 19.38037109 C68.48944336 20.19957031 69.31702148 21.01876953 70.16967773 21.86279297 C70.95600586 22.64589844 71.74233398 23.42900391 72.55249023 24.23583984 C73.62805176 25.30354614 73.62805176 25.30354614 74.7253418 26.39282227 C77.08561982 28.9119783 77.38994335 29.99922778 77.78686523 33.50537109 C77.41186523 37.19287109 77.41186523 37.19287109 75.61315918 39.88290405 C70.83571807 43.33017622 66.57239138 42.89253847 60.81616211 42.83984375 C59.6432814 42.84860535 58.4704007 42.85736694 57.26197815 42.86639404 C53.38448102 42.88840288 49.50812399 42.87382827 45.63061523 42.85693359 C42.93688026 42.85804691 40.24316563 42.86514577 37.54943848 42.87142944 C31.90368291 42.8805192 26.25825467 42.86855622 20.61254883 42.84472656 C14.09064169 42.81751602 7.56951612 42.8263307 1.04762793 42.85385859 C-4.5576681 42.8765683 -10.16272921 42.87974083 -15.76805639 42.86666524 C-19.11345106 42.85888055 -22.45818389 42.85977137 -25.80360413 42.87434769 C-29.53375232 42.88703315 -33.26239566 42.86770768 -36.99243164 42.83984375 C-38.0980394 42.8499649 -39.20364716 42.86008606 -40.34275818 42.87051392 C-47.80006751 42.76720715 -47.80006751 42.76720715 -51.77380371 39.8711853 C-54.18524774 36.31141334 -54.34121379 34.41011362 -53.58813477 30.19287109 C-50.34535189 26.47656676 -46.92681608 23.96237784 -42.68579102 21.48583984 C-41.55399414 20.82011963 -40.42219727 20.15439941 -39.25610352 19.46850586 C-38.05444311 18.77218042 -36.85261746 18.07614005 -35.65063477 17.38037109 C-34.42634312 16.66471379 -33.20238541 15.9484849 -31.97875977 15.23168945 C-28.52075156 13.20913156 -25.05486006 11.2004484 -21.58813477 9.19287109 C-19.99298672 8.26334826 -18.39791808 7.33368912 -16.80297852 6.40380859 C-5.91141837 0.09317823 -5.91141837 0.09317823 0 0 Z " fill="#624CF5" transform="translate(107.588134765625,161.80712890625)"/>
<path d="M0 0 C1.17288071 -0.0071553 2.34576141 -0.01431061 3.55418396 -0.02168274 C7.43170095 -0.03859321 11.30806571 -0.01915132 15.18554688 0.00219727 C17.87927937 0.00372863 20.57299462 -0.00103434 23.26672363 -0.00511169 C28.9124885 -0.00962981 34.55792175 0.00621922 40.20361328 0.03417969 C46.72543876 0.06623074 53.24666624 0.06621521 59.76853418 0.04896492 C66.04929234 0.03308611 72.32983182 0.03984195 78.61058044 0.05690193 C81.2804444 0.0637643 83.94984753 0.06159655 86.61976624 0.05535698 C90.34975337 0.0499125 94.07872255 0.07025793 97.80859375 0.09765625 C98.91420151 0.09113037 100.01980927 0.08460449 101.15892029 0.07788086 C105.68578605 0.1344776 108.59271336 0.17167096 112.58215332 2.43006897 C114.76327346 5.0647246 115.23918809 7.09250225 115.01416016 10.50830078 C114.27259203 13.08953973 113.20871224 14.37116334 111.39648438 16.34594727 C110.76291016 17.03897949 110.12933594 17.73201172 109.4765625 18.44604492 C105.95571846 22.15852774 102.39566227 25.82404346 98.77929688 29.44360352 C98.04195313 30.19319336 97.30460937 30.9427832 96.54492188 31.71508789 C95.825625 32.43631836 95.10632813 33.15754883 94.36523438 33.90063477 C93.72376465 34.54621338 93.08229492 35.19179199 92.42138672 35.85693359 C85.47553818 41.96628742 78.89932281 42.97234504 69.97851562 43.10766602 C68.44793266 43.13188126 68.44793266 43.13188126 66.88642883 43.15658569 C64.72375218 43.18421919 62.56098919 43.20568508 60.39819336 43.22143555 C58.21335814 43.24434381 56.02862898 43.28503869 53.84448242 43.34448242 C39.23612816 43.74155104 28.77758892 42.62149846 16.40429688 34.63110352 C15.59049561 34.15785645 14.77669434 33.68460938 13.93823242 33.19702148 C12.05385026 32.10090866 10.22772751 30.95009368 8.40429688 29.75610352 C7.09076222 28.91454013 5.7769508 28.07340859 4.46289062 27.23266602 C3.80530762 26.80888672 3.14772461 26.38510742 2.47021484 25.94848633 C0.28644223 24.55595063 -1.91504614 23.19580348 -4.12304688 21.84204102 C-4.86103516 21.38812988 -5.59902344 20.93421875 -6.359375 20.46655273 C-7.78192511 19.59263662 -9.20633795 18.72174362 -10.6328125 17.85424805 C-15.48377671 14.85495635 -15.48377671 14.85495635 -16.59570312 12.63110352 C-17.05734018 8.55330954 -17.10660259 6.3954547 -14.79699707 2.94007874 C-10.01804305 -0.5068045 -5.75658083 -0.06087791 0 0 Z " fill="#624CF5" transform="translate(70.595703125,35.368896484375)"/>
<path d="M0 0 C26.4 0 52.8 0 80 0 C80 9.57 80 19.14 80 29 C79.34 29 78.68 29 78 29 C77.75765625 28.19175781 77.5153125 27.38351563 77.265625 26.55078125 C74.08167438 16.28833411 74.08167438 16.28833411 66 9.75 C61.59720796 7.65179442 57.66528587 6.88172675 52.796875 6.68359375 C51.47187988 6.62643188 51.47187988 6.62643188 50.12011719 6.56811523 C49.00797852 6.52501221 47.89583984 6.48190918 46.75 6.4375 C43.2025 6.293125 39.655 6.14875 36 6 C36 18.87 36 31.74 36 45 C46.18143849 43.91135705 46.18143849 43.91135705 52 38 C54.66834712 32.8609611 55.91289585 27.6401521 57 22 C57.99 22 58.98 22 60 22 C60 38.83 60 55.66 60 73 C59.01 73 58.02 73 57 73 C56.82984375 72.13117188 56.6596875 71.26234375 56.484375 70.3671875 C54.47090775 59.70741863 54.47090775 59.70741863 47.25 52.1875 C44.56452205 51.20626767 42.58307858 50.73822589 39.796875 50.42578125 C38.54390625 50.28527344 37.2909375 50.14476562 36 50 C36.06889719 55.19659918 36.1568731 60.39239528 36.26245117 65.58837891 C36.29568069 67.35554083 36.32371882 69.12280839 36.34643555 70.89013672 C36.38001831 73.43242351 36.43233451 75.97374408 36.48828125 78.515625 C36.49467117 79.30430969 36.5010611 80.09299438 36.50764465 80.90557861 C36.5938288 84.12958059 36.79720046 86.60445581 38.28027344 89.49707031 C40.35226375 91.30785571 41.30118235 91.51377661 44.02734375 91.53125 C45.20744019 91.54345581 45.20744019 91.54345581 46.41137695 91.5559082 C47.24499756 91.5374585 48.07861816 91.51900879 48.9375 91.5 C49.78981201 91.48864014 50.64212402 91.47728027 51.52026367 91.46557617 C60.04479403 91.20515592 67.11377697 89.44688117 74.375 84.875 C79.33440412 79.44327167 83.11815169 73.15102356 85 66 C85.66 66 86.32 66 87 66 C86.88168449 68.16704197 86.75480401 70.33361583 86.625 72.5 C86.55539062 73.7065625 86.48578125 74.913125 86.4140625 76.15625 C85.81833025 83.12519332 84.86754355 90.05965158 84 97 C56.28 97 28.56 97 0 97 C0 96.01 0 95.02 0 94 C1.04800781 93.83564453 1.04800781 93.83564453 2.1171875 93.66796875 C3.02726563 93.50941406 3.93734375 93.35085937 4.875 93.1875 C5.77992188 93.03667969 6.68484375 92.88585937 7.6171875 92.73046875 C10.34412478 92.16948699 10.34412478 92.16948699 12 89 C12.20964401 86.35904788 12.30405872 83.82200298 12.30639648 81.1796875 C12.31472 80.38427551 12.32304352 79.58886353 12.33161926 78.76934814 C12.3557321 76.13784914 12.36449174 73.50659778 12.37109375 70.875 C12.38005727 69.04801355 12.38917906 67.22102787 12.39845276 65.39404297 C12.4149475 61.56410944 12.42264407 57.7342634 12.42553711 53.90429688 C12.43092943 48.99097267 12.46864204 44.07846731 12.51428127 39.16537476 C12.54398327 35.39246597 12.55125912 31.61975629 12.55226326 27.84674072 C12.55647724 26.03497557 12.56895851 24.22321045 12.58978081 22.41156006 C12.61656166 19.88052567 12.61191147 17.35141497 12.59936523 14.8203125 C12.61419952 14.0690509 12.62903381 13.31778931 12.64431763 12.54376221 C12.66750884 10.21202422 12.66750884 10.21202422 12 7 C8.3191903 3.8849219 4.72947898 3.46367441 0 3 C0 2.01 0 1.02 0 0 Z " fill="#050505" transform="translate(216,69)"/>
<path d="M0 0 C7.52980142 4.94392408 12.31432222 11.59226332 14.609375 20.31640625 C16.47610515 33.14084237 15.19248363 44.32837661 7.5859375 54.99609375 C2.04635304 61.99561796 -5.28567978 65.27004168 -14.02734375 66.38671875 C-22.27749183 66.69463933 -29.29409115 65.03210724 -35.75 59.75 C-36.4925 58.8425 -37.235 57.935 -38 57 C-38.75410156 56.11828125 -38.75410156 56.11828125 -39.5234375 55.21875 C-47.64516617 45.23496646 -48.17556812 34.44480736 -47 22 C-45.41382268 13.18085408 -40.64924745 6.86441825 -34 1 C-23.21131969 -6.05557294 -11.37625731 -5.494127 0 0 Z " fill="#050505" transform="translate(747,102)"/>
<path d="M0 0 C3.9535329 3.63015686 6.70435105 7.78325019 7.20217896 13.19976807 C7.3111739 15.94942377 7.35506083 18.69360007 7.37890625 21.4453125 C7.39590073 22.45214081 7.4128952 23.45896912 7.43040466 24.49630737 C7.48343434 27.70580823 7.52379122 30.91529698 7.5625 34.125 C7.60645032 37.34177911 7.6531547 40.55845912 7.70530701 43.77511597 C7.73722345 45.77497907 7.76412616 47.7749297 7.78553772 49.77493286 C7.79902756 50.6795224 7.8125174 51.58411194 7.82641602 52.51611328 C7.83592789 53.31155548 7.84543976 54.10699768 7.85523987 54.92654419 C7.92716012 57.1971263 7.92716012 57.1971263 9 60 C11.50447516 61.21869929 11.50447516 61.21869929 14 62 C14 62.99 14 63.98 14 65 C3.11 65 -7.78 65 -19 65 C-19 64.01 -19 63.02 -19 62 C-17.78086914 61.50318726 -17.78086914 61.50318726 -16.53710938 60.99633789 C-13.82707191 59.29947435 -13.82707191 59.29947435 -13.5324707 56.85519409 C-13.36920165 53.91260671 -13.36023829 51.00547717 -13.40625 48.05859375 C-13.40620972 46.97997574 -13.40616943 45.90135773 -13.40612793 44.79005432 C-13.41149107 42.5094724 -13.42910737 40.22889143 -13.45800781 37.94848633 C-13.4998803 34.44750854 -13.49907718 30.94845161 -13.4921875 27.44726562 C-13.50267866 25.23436156 -13.51561636 23.02146746 -13.53125 20.80859375 C-13.53145142 19.7565123 -13.53165283 18.70443085 -13.53186035 17.62046814 C-13.54777222 16.64928543 -13.56368408 15.67810272 -13.58007812 14.67749023 C-13.58849731 13.82050034 -13.5969165 12.96351044 -13.60559082 12.08055115 C-13.73574585 11.39396927 -13.86590088 10.70738739 -14 10 C-16.85919024 7.7162016 -16.85919024 7.7162016 -20.3125 7.875 C-25.45158713 9.44285709 -27.48805256 12.3421669 -30 17 C-30.76768398 20.1640136 -30.77656132 23.14697463 -30.69140625 26.390625 C-30.69003159 27.25766052 -30.68865692 28.12469604 -30.6872406 29.01800537 C-30.67823475 30.83667442 -30.65476093 32.6553246 -30.61743164 34.47363281 C-30.56236761 37.2566911 -30.55590527 40.03676402 -30.55664062 42.8203125 C-30.54190212 44.59377587 -30.52442019 46.36721903 -30.50390625 48.140625 C-30.50056778 48.96983459 -30.49722931 49.79904419 -30.49378967 50.65338135 C-30.40842028 54.10885415 -30.31588722 56.41447536 -28.65600586 59.49121094 C-26.96462486 61.23688582 -26.96462486 61.23688582 -24 62 C-24 62.99 -24 63.98 -24 65 C-35.22 65 -46.44 65 -58 65 C-58 64.01 -58 63.02 -58 62 C-56.02 61.01 -54.04 60.02 -52 59 C-52 41.18 -52 23.36 -52 5 C-53.98 4.01 -55.96 3.02 -58 2 C-58 1.01 -58 0.02 -58 -1 C-49.09 -1 -40.18 -1 -31 -1 C-30.67 1.64 -30.34 4.28 -30 7 C-29.5153125 6.52949219 -29.030625 6.05898437 -28.53125 5.57421875 C-19.9721822 -2.37583846 -11.06219318 -6.14566288 0 0 Z " fill="#050505" transform="translate(512,101)"/>
<path d="M0 0 C7.68611524 4.18805027 12.30882815 10.6382009 14.87109375 19.01953125 C14.87109375 22.64953125 14.87109375 26.27953125 14.87109375 30.01953125 C2.99109375 30.01953125 -8.88890625 30.01953125 -21.12890625 30.01953125 C-18.71218012 42.5720597 -18.71218012 42.5720597 -11.44140625 52.58203125 C-6.95087426 55.37344303 -3.36631687 55.65543945 1.87109375 55.01953125 C5.50909288 53.16621094 7.52269916 51.45751302 10.05859375 48.26953125 C10.65671875 47.52703125 11.25484375 46.78453125 11.87109375 46.01953125 C12.86109375 46.01953125 13.85109375 46.01953125 14.87109375 46.01953125 C13.92218337 53.01928574 9.05206655 58.25415756 3.93359375 62.89453125 C-3.0840029 67.76388403 -9.63388989 68.9137435 -18.12890625 68.01953125 C-25.93628193 66.38162027 -31.59486721 61.63996734 -35.94140625 55.08203125 C-42.01600444 45.31706283 -41.48655003 31.57249888 -39.51171875 20.5859375 C-36.56914463 11.40666866 -30.61575886 5.05712497 -22.25390625 0.45703125 C-14.68203177 -2.97606046 -7.67582709 -3.3823061 0 0 Z " fill="#050505" transform="translate(430.12890625,99.98046875)"/>
<path d="M0 0 C0.66 0 1.32 0 2 0 C2 8.25 2 16.5 2 25 C7.28 25 12.56 25 18 25 C18 27.31 18 29.62 18 32 C12.72 32 7.44 32 2 32 C2.0934347 38.92366347 2.19950668 45.8469731 2.31738281 52.77026367 C2.35570602 55.12632924 2.39055294 57.482454 2.421875 59.83862305 C2.46745274 63.22205787 2.52545952 66.60508408 2.5859375 69.98828125 C2.59748871 71.04461258 2.60903992 72.10094391 2.62094116 73.18928528 C2.64081085 74.17007553 2.66068054 75.15086578 2.68115234 76.16137695 C2.69447601 77.02519485 2.70779968 77.88901276 2.7215271 78.77900696 C2.8678214 81.28584887 2.8678214 81.28584887 5 84 C8.39534252 83.81314911 8.39534252 83.81314911 12 83 C13.75422772 81.02329393 13.75422772 81.02329393 15 79 C15.99 79 16.98 79 18 79 C16.37241288 84.03072383 13.82549911 88.37851443 9.17578125 91.046875 C3.30129666 93.49361514 -2.09087952 94.0267484 -8.1875 91.875 C-12.07196678 89.28535548 -14.88657021 86.22685959 -17 82 C-17.09016377 80.39645548 -17.11756075 78.78917778 -17.11352539 77.18310547 C-17.11344986 76.18221893 -17.11337433 75.1813324 -17.11329651 74.15011597 C-17.10813522 73.06674957 -17.10297394 71.98338318 -17.09765625 70.8671875 C-17.0962413 69.76021515 -17.09482635 68.6532428 -17.09336853 67.51272583 C-17.08775772 63.96679007 -17.07520337 60.42091677 -17.0625 56.875 C-17.05748639 54.47526133 -17.05292325 52.07552167 -17.04882812 49.67578125 C-17.03778478 43.78383275 -17.0210361 37.89192084 -17 32 C-19.97 32 -22.94 32 -26 32 C-24.81631274 27.26525097 -23.80358676 26.76377627 -20 23.9375 C-12.63083867 18.11873365 -6.9234649 11.33380068 -2.0625 3.3125 C-1.381875 2.219375 -0.70125 1.12625 0 0 Z " fill="#020202" transform="translate(560,75)"/>
<path d="M0 0 C11.55 0 23.1 0 35 0 C35 0.99 35 1.98 35 3 C33.35 3.66 31.7 4.32 30 5 C29.63710474 10.55016274 30.69580604 14.38298065 33.1875 19.25 C33.82846445 20.56233426 34.46908656 21.87483578 35.109375 23.1875 C35.42841797 23.82945313 35.74746094 24.47140625 36.07617188 25.1328125 C37.40539686 27.81936449 38.67870118 30.52983704 39.9375 33.25 C40.33839844 34.10078125 40.73929687 34.9515625 41.15234375 35.828125 C42 38 42 38 42 41 C42.66 41 43.32 41 44 41 C44.17015625 40.46632812 44.3403125 39.93265625 44.515625 39.3828125 C46.69803917 32.67304977 49.05302157 26.0002765 52.14453125 19.6484375 C54.67657002 14.44120582 55.42168107 10.79811466 55 5 C53.02 4.34 51.04 3.68 49 3 C49 2.01 49 1.02 49 0 C55.93 0 62.86 0 70 0 C70 0.99 70 1.98 70 3 C68.65808594 3.80244141 68.65808594 3.80244141 67.2890625 4.62109375 C62.88507304 7.35063625 61.39353515 11.45286229 59.375 16.0625 C58.98530029 16.917229 58.59560059 17.77195801 58.1940918 18.65258789 C55.85538026 23.84682335 53.78321223 29.08246402 51.94921875 34.4765625 C50.47025113 38.40830359 48.50534363 42.07305019 46.5859375 45.8046875 C43.00309193 53.02332709 39.96763627 60.51091789 37 68 C35.68 68 34.36 68 33 68 C32.54729736 66.91283691 32.54729736 66.91283691 32.08544922 65.80371094 C30.68629533 62.45064904 29.28068199 59.10033013 27.875 55.75 C27.400625 54.61046875 26.92625 53.4709375 26.4375 52.296875 C23.61958547 45.594808 20.58505874 39.07686027 17.28564453 32.59912109 C15.80683662 29.60949157 14.60578383 26.5831199 13.5 23.4375 C9.08894617 11.37821297 9.08894617 11.37821297 0 3 C0 2.01 0 1.02 0 0 Z " fill="#050505" transform="translate(312,100)"/>
<path d="M0 0 C9.24 0 18.48 0 28 0 C28.05607422 6.33638672 28.05607422 6.33638672 28.11328125 12.80078125 C28.15138399 16.16773894 28.19245678 19.53463122 28.2355423 22.9015274 C28.28021692 26.45638385 28.31964904 30.01112204 28.34643555 33.56616211 C28.37740626 37.64466541 28.43219605 41.72254545 28.48828125 45.80078125 C28.49467117 47.07585037 28.5010611 48.35091949 28.50764465 49.66462708 C28.52743881 50.84562485 28.54723297 52.02662262 28.56762695 53.2434082 C28.57873001 54.28487503 28.58983307 55.32634186 28.60127258 56.39936829 C29.05461315 59.35620498 29.62069399 60.25112787 32 62 C34.10332891 62.71447643 34.10332891 62.71447643 36 63 C36 63.99 36 64.98 36 66 C24.12 66 12.24 66 0 66 C0 65.01 0 64.02 0 63 C0.969375 62.54625 1.93875 62.0925 2.9375 61.625 C6.07079582 60.34213779 6.07079582 60.34213779 7 58 C7.11023157 56.41826561 7.15909786 54.83205172 7.17700195 53.24658203 C7.18983719 52.25860626 7.20267242 51.27063049 7.21589661 50.25271606 C7.22328354 49.18189789 7.23067047 48.11107971 7.23828125 47.0078125 C7.246353 45.91032684 7.25442474 44.81284119 7.26274109 43.68209839 C7.2765879 41.35692936 7.28730737 39.03173995 7.29516602 36.70654297 C7.31239633 33.14641991 7.35628028 29.58722106 7.40039062 26.02734375 C7.41051572 23.77084018 7.41903239 21.5143287 7.42578125 19.2578125 C7.44328934 18.19104279 7.46079742 17.12427307 7.47883606 16.025177 C7.56504882 10.33541588 7.56504882 10.33541588 5.16088867 5.35888672 C2.95744959 3.8539665 2.95744959 3.8539665 0 3 C0 2.01 0 1.02 0 0 Z " fill="#050505" transform="translate(583,100)"/>
<path d="M0 0 C4.33191897 4.00851441 8.53166187 8.49290978 9.3359375 14.515625 C9.44167029 21.9169205 8.48772667 27.20825842 3.38671875 32.75390625 C-1.7907 37.51804989 -6.76558429 39.49741219 -13.92578125 39.23828125 C-21.06158983 38.41853676 -25.14653522 35.55578032 -29.58984375 29.96875 C-33.41209705 24.63241852 -33.77544204 19.42929791 -33 13 C-31.16747616 6.7781975 -27.3388311 2.5514325 -22 -1 C-14.9001131 -4.32335132 -6.72901852 -4.06964593 0 0 Z " fill="#FA786D" transform="translate(143,102)"/>
<path d="M0 0 C2.75329021 1.79562405 4.52627461 3.05254922 6 6 C7.35201229 13.91497187 7.18622045 22.03654362 7.18530273 30.04174805 C7.1875067 32.19404391 7.2057797 34.34583996 7.22460938 36.49804688 C7.2275414 37.88801911 7.22952747 39.27799374 7.23046875 40.66796875 C7.23457764 41.90828857 7.23868652 43.1486084 7.24291992 44.42651367 C6.88686728 49.66424487 5.96392027 53.70559278 2.8125 57.9375 C0 60 0 60 -3.5 60.6875 C-7.20054502 59.96060723 -8.58659568 59.00623057 -10.95703125 56.09375 C-14.76487942 48.44953046 -14.34046079 40.11741459 -14.31567383 31.79174805 C-14.31251203 29.57095286 -14.33603508 27.3514908 -14.36132812 25.13085938 C-14.39940966 16.56209334 -14.26934157 8.78725016 -9.25 1.4375 C-5.96881837 -0.65881048 -3.81687523 -0.53570179 0 0 Z " fill="#F7F7F7" transform="translate(734,103)"/>
<path d="M0 0 C3.76975175 0.70682845 5.3668821 1.78309777 8 4.5625 C10.09492291 9.44337941 10.3052936 13.78857825 10.25 19 C10.25773438 19.72509766 10.26546875 20.45019531 10.2734375 21.19726562 C10.25243368 27.0415778 9.86896904 32.53778354 5.75 37 C2.40984276 38.89781662 0.78005961 39.27126118 -3 38.5625 C-6.20952521 35.93652483 -8.57066239 33.45489261 -10 29.5625 C-10.29224915 26.60063811 -10.27882683 23.66146778 -10.25 20.6875 C-10.25773438 19.89730469 -10.26546875 19.10710937 -10.2734375 18.29296875 C-10.25327143 12.23306467 -9.59062428 7.59496436 -5.75 2.6875 C-3 0.5625 -3 0.5625 0 0 Z " fill="#F6F6F6" transform="translate(656,102.4375)"/>
<path d="M0 0 C1.96549805 -0.0009668 1.96549805 -0.0009668 3.97070312 -0.00195312 C4.64866943 0.00843994 5.32663574 0.01883301 6.02514648 0.02954102 C8.08854917 0.05846609 10.14937268 0.05014626 12.21289062 0.03710938 C25.78789178 0.12382928 25.78789178 0.12382928 30.16015625 4.49609375 C30.22265625 7.80859375 30.22265625 7.80859375 29.16015625 11.49609375 C22.90279977 16.21360859 16.0136146 16.72692272 8.47265625 16.80859375 C7.16264648 16.85209961 7.16264648 16.85209961 5.82617188 16.89648438 C-0.2714762 16.95568484 -4.7357121 15.91223246 -9.83984375 12.49609375 C-11.83984375 10.49609375 -11.83984375 10.49609375 -12.27734375 7.62109375 C-11.83984375 4.49609375 -11.83984375 4.49609375 -9.73999023 2.33178711 C-6.21287582 0.09924453 -4.15013101 -0.00644909 0 0 Z " fill="#F8F8F8" transform="translate(649.83984375,175.50390625)"/>
<path d="M0 0 C3.10164769 2.55024365 4.72566416 4.17699247 6 8 C6.13590447 12.66967754 6.04286807 17.32737985 6 22 C-0.6 22 -7.2 22 -14 22 C-14 7.4 -14 7.4 -8.125 0.9375 C-5.1189249 -0.3887096 -3.25369061 -0.53121479 0 0 Z " fill="#F4F4F4" transform="translate(422,103)"/>
<path d="M0 0 C3.0097291 1.77847628 5.41086334 3.82172667 7 7 C7.42351789 10.81166103 7.32589594 12.5055372 5.1875 15.75 C2.14630702 18.87808421 0.57995493 19.9334478 -3.8125 20.4375 C-8.64484674 20.33942654 -10.69263085 18.38803669 -14 15 C-15.6167707 11.76645861 -15.47631929 9.57239465 -15 6 C-11.00870978 0.4146274 -6.60788145 -1.15375708 0 0 Z " fill="#090909" transform="translate(605,67)"/>
</svg>
